<svg width="125" height="142" viewBox="0 0 125 142" fill="none" xmlns="http://www.w3.org/2000/svg">
<g clip-path="url(#clip0_44_174)">
<path d="M16.2212 41.7812L56.2622 96.0546C56.6863 96.6192 56.6863 97.3955 56.2622 97.9601L36.224 125.873C30.9229 133.248 19.3312 130.531 17.8469 121.568L0.14118 12.7742C-0.919041 6.2106 4.48808 0.388035 11.1675 0.987936L75.5935 6.88108C76.4771 6.95165 76.6184 8.18674 75.7702 8.43376L21.3456 26.0073C14.6662 28.1599 12.0863 36.1703 16.2212 41.7812Z" fill="#33CCCC"/>
<path d="M124.93 5.57568L104.079 137.942C103.654 140.73 101.251 142.035 99.2369 142.035C98.1413 142.035 96.6217 141.683 95.4201 140.059L60.2208 92.3848L20.5332 38.5702C19.6143 37.2998 19.3316 35.7119 19.8264 34.2298C20.3211 32.7476 21.452 31.6184 22.9363 31.1244L93.1229 8.46932L118.71 0.211862C119.204 0.0354203 119.734 -0.0351562 120.229 -0.0351562C121.608 -0.0351562 122.95 0.600033 123.869 1.69397C124.399 2.32916 125.248 3.67011 124.93 5.57568Z" fill="#33CCCC"/>
</g>
<defs>
<clipPath id="clip0_44_174">
<rect width="125" height="142" fill="white"/>
</clipPath>
</defs>
</svg>
