<svg width="200" height="72" viewBox="0 0 200 72" fill="none" xmlns="http://www.w3.org/2000/svg">
<path d="M8.99025 21.1094L29.2366 48.4933C29.4425 48.7777 29.4505 49.1647 29.2366 49.4491L19.1055 63.5399C16.4202 67.268 10.5586 65.8936 9.82196 61.3678L0.863195 6.48149C0.32456 3.16414 3.06526 0.225918 6.42381 0.533958L38.9795 3.50377C39.4231 3.54327 39.4865 4.15935 39.0667 4.29362L11.5488 13.1636C8.19813 14.2457 6.89115 18.2818 8.98233 21.1094H8.99025Z" fill="#0CB2AE"/>
<path d="M63.9468 2.84017L53.4118 69.6373C53.19 71.0512 51.986 71.6988 50.9721 71.6988C50.4255 71.6988 49.6493 71.5251 49.0393 70.7036L31.2564 46.645L11.1844 19.498C10.717 18.8582 10.5824 18.0605 10.8279 17.3101C11.0735 16.5598 11.6438 15.9832 12.3963 15.7383L47.867 4.30928L60.7942 0.146797C61.0477 0.0678122 61.3091 0.0283203 61.5626 0.0283203C62.2676 0.0283203 62.9409 0.344259 63.4082 0.89715C63.6775 1.21309 64.1053 1.88446 63.9548 2.84807L63.9468 2.84017Z" fill="#0CB2AE"/>
<path d="M79.7811 29.9716C80.7316 29.9874 81.4366 30.0031 81.896 30.011V29.1896C81.1356 29.1896 80.5891 29.079 80.2564 28.8579C79.9237 28.6367 79.7573 28.1865 79.7573 27.5151V23.7871C79.892 23.7871 80.09 23.7871 80.3673 23.795C80.6445 23.8029 80.8504 23.8029 81.0009 23.8029C82.0545 23.8029 82.9812 23.7239 83.7813 23.5738C84.5813 23.4237 85.2783 23.1078 85.8724 22.6497C86.2685 22.3417 86.5695 21.9467 86.7754 21.457C86.9814 20.9673 87.0923 20.4618 87.0923 19.9326C87.0923 19.1112 86.8705 18.4398 86.4348 17.9027C85.8487 17.2156 85.0962 16.7733 84.1615 16.5758C83.2268 16.3704 82.1099 16.2756 80.8029 16.2756H80.0029C79.5514 16.2756 79.0286 16.2835 78.4187 16.2993C77.8087 16.3151 77.3493 16.323 77.0246 16.323C76.6681 16.323 76.2324 16.3151 75.7176 16.2914C75.2027 16.2677 74.8146 16.2599 74.5611 16.252V17.0497C75.2819 17.1129 75.773 17.2393 76.0344 17.4209C76.2958 17.6026 76.4226 18.0212 76.4226 18.6531V27.523C76.4226 28.1391 76.2879 28.5498 76.0107 28.7552C75.7334 28.9685 75.2502 29.1027 74.569 29.1738V29.9953C75.5908 29.9479 76.6285 29.9242 77.6662 29.9242C78.1256 29.9242 78.8306 29.9321 79.7811 29.9558V29.9716ZM79.7573 17.8237V17.7922C79.7573 17.4288 80.0821 17.2472 80.7316 17.2472H80.8742C81.4921 17.2472 82.0307 17.3893 82.4901 17.6816C82.9495 17.9659 83.2505 18.3924 83.3852 18.9453C83.4644 19.3008 83.5119 19.6641 83.5119 20.0353C83.5119 20.5487 83.4248 21.0147 83.2426 21.4333C83.0604 21.852 82.7832 22.1679 82.4109 22.3654C81.904 22.6497 81.1594 22.7919 80.1692 22.7919H79.7573V17.8158V17.8237Z" fill="#004443"/>
<path d="M90.3875 29.9708C90.7043 29.9708 91.1875 29.9708 91.8291 29.9787C92.4707 29.9787 92.9618 29.9866 93.2866 29.9866V29.252C92.7638 29.2362 92.3836 29.173 92.1539 29.0624C91.9163 28.9519 91.8054 28.6754 91.8054 28.241V24.3945C91.8054 23.9995 91.9163 23.5809 92.146 23.1307C92.3757 22.6805 92.6767 22.4593 93.049 22.4593C93.1916 22.4593 93.3817 22.5857 93.5955 22.8464C93.8173 23.107 93.9837 23.2887 94.1104 23.3914C94.2292 23.494 94.4273 23.5493 94.7045 23.5493C94.7045 23.5493 94.8312 23.5256 95.0689 23.4782C95.3778 23.4072 95.6075 23.2571 95.7659 23.0438C95.9243 22.8306 95.9956 22.5778 95.9956 22.3014C95.9956 22.0249 95.9243 21.7564 95.7897 21.5036C95.6471 21.2509 95.4491 21.0692 95.1956 20.9586C94.9421 20.8481 94.657 20.8007 94.3401 20.8007C93.3658 20.8007 92.4707 21.3694 91.639 22.4988L91.4648 20.7217C91.1954 20.7217 90.8231 20.7928 90.34 20.927C89.8647 21.0613 89.5637 21.1482 89.4369 21.1719C88.7241 21.2825 88.0825 21.3694 87.5042 21.4325V22.1671C88.0825 22.1829 88.4468 22.3409 88.5973 22.6331C88.7478 22.9253 88.827 23.3914 88.827 24.0311V28.2489C88.827 28.8334 88.3835 29.173 87.5042 29.2599V29.9945C87.8211 29.9945 88.2963 29.9945 88.93 29.9866C89.5716 29.9866 90.0548 29.9787 90.3796 29.9787L90.3875 29.9708Z" fill="#004443"/>
<path d="M98.9977 29.6871C99.7819 30.0663 100.606 30.2479 101.477 30.2479C102.285 30.2479 103.061 30.0742 103.806 29.7345C104.55 29.3949 105.168 28.8894 105.659 28.218L104.954 27.6019C104.083 28.534 103.212 28.9921 102.348 28.9921C102.309 28.9921 102.237 28.9921 102.15 28.9842C102.063 28.9763 102 28.9763 101.952 28.9763C100.376 28.7472 99.5918 27.5309 99.5918 25.3193C99.5918 25.2956 99.5918 25.2561 99.6077 25.1929C99.6077 25.1297 99.6156 25.0981 99.6156 25.0823H105.826C105.794 23.9687 105.628 23.1472 105.311 22.6101C105.01 22.0888 104.598 21.6623 104.059 21.3464C103.521 21.0304 102.942 20.833 102.317 20.7777C102.166 20.7619 101.944 20.7461 101.635 20.7461C100.725 20.7461 99.8849 20.9278 99.1007 21.2753C98.3165 21.6307 97.6828 22.1441 97.1996 22.8155C96.7165 23.4869 96.4392 24.2846 96.3759 25.2008V25.5484C96.3759 26.4962 96.6135 27.3255 97.0967 28.0443C97.5799 28.7551 98.2056 29.3001 98.9898 29.6792L98.9977 29.6871ZM100.099 22.3574C100.416 21.8282 100.875 21.5675 101.485 21.5675C102.554 21.5833 103.093 22.4364 103.093 24.1187H99.6314C99.6314 23.4711 99.7898 22.8787 100.099 22.3574Z" fill="#004443"/>
<path d="M111.323 30.0104V29.2601C110.998 29.2364 110.753 29.1732 110.586 29.0626C110.42 28.952 110.317 28.802 110.269 28.6203C110.222 28.4307 110.198 28.178 110.198 27.8463V24.8527C110.198 24.1972 110.357 23.589 110.681 23.044C111.006 22.4911 111.466 22.2068 112.075 22.191H112.194C112.978 22.191 113.367 22.6886 113.367 23.6759V27.9963C113.351 28.3439 113.311 28.5966 113.256 28.7546C113.2 28.9125 113.089 29.031 112.931 29.11C112.772 29.189 112.527 29.2364 112.194 29.268V30.0183C113.232 29.9867 114.008 29.9709 114.507 29.9709C115.157 29.9709 116.099 29.9867 117.343 30.0183V29.268C116.852 29.2285 116.543 29.11 116.424 28.9204C116.305 28.7309 116.242 28.3754 116.242 27.8541V24.8606C116.242 24.1972 116.4 23.5969 116.709 23.0519C117.026 22.5069 117.493 22.2226 118.119 22.191H118.191C119.006 22.191 119.41 22.7202 119.41 23.7707V27.9015C119.395 28.4228 119.323 28.7704 119.173 28.952C119.022 29.1337 118.705 29.2443 118.214 29.2917V30.0262C119.379 29.9946 120.258 29.9788 120.844 29.9788C121.478 29.9788 122.365 29.9946 123.506 30.0262V29.2759C122.975 29.2443 122.634 29.1495 122.476 29.0073C122.317 28.8652 122.238 28.5571 122.238 28.0911C122.238 28.0753 122.238 28.0437 122.254 27.9963C122.254 27.9489 122.262 27.9173 122.262 27.9015V23.9128C122.262 23.1072 122.151 22.4595 121.929 21.9698C121.707 21.4801 121.248 21.1247 120.551 20.8956C120.084 20.785 119.703 20.7297 119.41 20.7297C118.151 20.7297 117.066 21.3142 116.171 22.4753C115.68 21.33 114.808 20.7534 113.541 20.7534H113.414C112.083 20.7771 110.99 21.3774 110.127 22.5464L109.984 20.7061C109.858 20.7061 109.731 20.7219 109.604 20.7455C109.477 20.7692 109.319 20.8087 109.137 20.864C108.955 20.9193 108.812 20.9509 108.717 20.9746C107.719 21.1958 106.848 21.3458 106.103 21.4248V22.1357C106.586 22.1436 106.903 22.2463 107.069 22.4437C107.236 22.6333 107.323 22.9571 107.323 23.4073V28.099C107.323 28.5334 107.236 28.8257 107.061 28.9678C106.887 29.11 106.562 29.2206 106.079 29.2759V30.0262C107.251 29.9946 108.123 29.9788 108.685 29.9788C109.248 29.9788 110.143 29.9946 111.323 30.0262V30.0104Z" fill="#004443"/>
<path d="M126.215 18.787C126.215 18.787 126.294 18.787 126.349 18.8028C126.405 18.8186 126.444 18.8186 126.484 18.8186C126.817 18.8186 127.133 18.7238 127.434 18.5264C127.735 18.3289 127.957 18.092 128.092 17.7997C128.155 17.5391 128.195 17.3337 128.195 17.1915C128.195 16.5755 127.957 16.1094 127.49 15.8014C127.181 15.6434 126.856 15.5645 126.516 15.5645C126.175 15.5645 125.858 15.6513 125.581 15.8251C125.304 15.9989 125.098 16.2437 124.963 16.5597C124.876 16.8914 124.836 17.0967 124.836 17.1757C124.836 17.5549 124.971 17.9024 125.24 18.2183C125.51 18.5343 125.834 18.7317 126.23 18.7949L126.215 18.787Z" fill="#004443"/>
<path d="M129.502 29.2604C128.979 29.2209 128.631 29.1419 128.44 29.0235C128.25 28.905 128.163 28.6206 128.163 28.1783V20.6748C128.036 20.6748 127.918 20.6906 127.791 20.7143C127.664 20.738 127.506 20.7775 127.316 20.8328C127.126 20.8881 126.959 20.9276 126.825 20.9591C125.866 21.1408 124.868 21.2909 123.822 21.4094V22.1202C124.345 22.1439 124.702 22.2308 124.884 22.3888C125.066 22.5467 125.161 22.8627 125.161 23.3445V28.1783C125.161 28.6206 125.066 28.905 124.884 29.0235C124.694 29.1419 124.345 29.2209 123.822 29.2604V30.0108C125.09 29.9792 126.04 29.9634 126.682 29.9634C126.991 29.9634 127.458 29.9634 128.092 29.9713C128.726 29.9792 129.201 29.9792 129.51 29.9792V29.2446L129.502 29.2604Z" fill="#004443"/>
<path d="M141.273 28.715C141.273 28.715 141.257 28.715 141.225 28.7229C141.193 28.7308 141.178 28.7308 141.17 28.7308C140.766 28.7308 140.473 28.6755 140.275 28.5728C140.077 28.4701 139.982 28.2253 139.982 27.854V20.8955C139.403 20.9113 138.793 20.9271 138.152 20.9271C137.51 20.9271 136.726 20.9271 135.791 20.9429V21.6538C136.195 21.6933 136.48 21.7643 136.655 21.8512C136.829 21.9381 136.948 22.0803 137.003 22.2698C137.059 22.4594 137.082 22.7674 137.082 23.1861V25.4529C137.082 26.3138 136.964 27.0405 136.726 27.6329C136.488 28.2253 136.005 28.5728 135.276 28.6834C135.245 28.6834 135.189 28.6834 135.11 28.7071C135.031 28.7229 134.983 28.7308 134.96 28.7308C134.563 28.7308 134.27 28.5807 134.072 28.2885C133.882 27.9883 133.787 27.6329 133.787 27.2064V20.9034C132.86 20.935 131.482 20.9508 129.644 20.9508V21.6617C130.056 21.7169 130.349 21.8038 130.516 21.9144C130.682 22.025 130.793 22.1751 130.825 22.3646C130.864 22.5542 130.88 22.8701 130.88 23.3203V27.3485C130.88 28.2174 131.078 28.8966 131.482 29.3705C131.886 29.8444 132.536 30.1209 133.439 30.2078H133.756C134.413 30.2078 135.039 30.0498 135.617 29.7339C136.203 29.4179 136.71 28.9835 137.146 28.4385L137.312 30.113C137.431 30.113 137.882 30.034 138.675 29.876C139.443 29.7023 140.298 29.5522 141.257 29.4258V28.715H141.273Z" fill="#004443"/>
<path d="M146.754 30.0104V29.2601C146.429 29.2364 146.184 29.1732 146.017 29.0626C145.851 28.952 145.748 28.802 145.701 28.6203C145.653 28.4307 145.629 28.178 145.629 27.8463V24.8527C145.629 24.1972 145.788 23.589 146.112 23.044C146.437 22.4911 146.897 22.2068 147.507 22.191H147.625C148.41 22.191 148.798 22.6886 148.798 23.6759V27.9963C148.782 28.3439 148.742 28.5966 148.687 28.7546C148.631 28.9125 148.52 29.031 148.362 29.11C148.204 29.189 147.958 29.2364 147.625 29.268V30.0183C148.663 29.9867 149.439 29.9709 149.938 29.9709C150.588 29.9709 151.53 29.9867 152.774 30.0183V29.268C152.283 29.2285 151.974 29.11 151.855 28.9204C151.736 28.7309 151.673 28.3754 151.673 27.8541V24.8606C151.673 24.1972 151.831 23.5969 152.14 23.0519C152.457 22.5069 152.925 22.2226 153.55 22.191H153.622C154.438 22.191 154.841 22.7202 154.841 23.7707V27.9015C154.826 28.4228 154.754 28.7704 154.604 28.952C154.453 29.1337 154.136 29.2443 153.645 29.2917V30.0262C154.81 29.9946 155.689 29.9788 156.275 29.9788C156.909 29.9788 157.796 29.9946 158.937 30.0262V29.2759C158.406 29.2443 158.065 29.1495 157.907 29.0073C157.749 28.8652 157.669 28.5571 157.669 28.0911C157.669 28.0753 157.669 28.0437 157.685 27.9963C157.685 27.9489 157.693 27.9173 157.693 27.9015V23.9128C157.693 23.1072 157.582 22.4595 157.36 21.9698C157.139 21.4801 156.679 21.1247 155.982 20.8956C155.515 20.785 155.135 20.7297 154.841 20.7297C153.582 20.7297 152.497 21.3142 151.602 22.4753C151.111 21.33 150.239 20.7534 148.972 20.7534H148.845C147.514 20.7771 146.421 21.3774 145.558 22.5464L145.415 20.7061C145.289 20.7061 145.162 20.7219 145.035 20.7455C144.908 20.7692 144.75 20.8087 144.568 20.864C144.386 20.9193 144.243 20.9509 144.148 20.9746C143.15 21.1958 142.279 21.3458 141.534 21.4248V22.1357C142.017 22.1436 142.334 22.2463 142.5 22.4437C142.667 22.6333 142.754 22.9571 142.754 23.4073V28.099C142.754 28.5334 142.667 28.8257 142.492 28.9678C142.318 29.11 141.993 29.2206 141.51 29.2759V30.0262C142.683 29.9946 143.554 29.9788 144.116 29.9788C144.679 29.9788 145.574 29.9946 146.754 30.0262V30.0104Z" fill="#004443"/>
<path d="M87.1794 37.3326C86.5457 36.7165 85.7774 36.2268 84.8665 35.8714C83.9555 35.516 82.9495 35.3106 81.8247 35.2632C81.1435 35.2316 80.6128 35.2158 80.2405 35.2158C79.8682 35.2158 79.3375 35.2237 78.6246 35.2395C77.9117 35.2553 77.3889 35.2632 77.0404 35.2632C77.0008 35.2632 76.9137 35.2632 76.8028 35.2711C76.684 35.2711 76.6047 35.279 76.5493 35.279C76.3354 35.279 76.0027 35.2711 75.5512 35.2474C75.0997 35.2237 74.7591 35.2158 74.5294 35.2158V36.0373C75.3057 36.0452 75.8285 36.1794 76.0899 36.4164C76.3513 36.6612 76.4859 37.143 76.4859 37.8539V46.3921C76.4859 46.8581 76.4305 47.2136 76.3117 47.4584C76.2008 47.7033 76.0027 47.877 75.7255 47.9718C75.4483 48.0745 75.0601 48.1219 74.5532 48.1298V48.9749C75.678 48.9433 77.3573 48.9275 79.5989 48.9275C79.8207 48.9275 80.1534 48.9275 80.6128 48.9354C81.0722 48.9354 81.4129 48.9433 81.6426 48.9433C82.8307 48.9433 83.7892 48.8564 84.5258 48.6827C85.714 48.3825 86.7121 47.7744 87.5359 46.866C88.3597 45.9577 88.8508 44.9151 89.033 43.7303C89.0963 43.3196 89.1359 42.8457 89.1359 42.3165C89.1359 41.2976 88.9696 40.3577 88.629 39.5126C88.2884 38.6595 87.8052 37.925 87.1715 37.3089L87.1794 37.3326ZM85.3655 43.3117C85.3259 44.5913 85.0249 45.6892 84.4783 46.6054C83.9318 47.5216 83.0921 47.9797 81.9436 47.9797C81.8881 47.9797 81.801 47.9797 81.6743 47.9718C81.5475 47.9639 81.4525 47.9639 81.3812 47.9639C80.795 47.8849 80.399 47.6717 80.1851 47.3241C79.9712 46.9845 79.8682 46.5027 79.8682 45.8866V36.6849C79.8682 36.3216 80.1613 36.1399 80.7475 36.1399C81.1356 36.1399 81.595 36.2031 82.1337 36.3295C82.9892 36.4954 83.6545 36.8666 84.1377 37.4432C84.6209 38.0198 84.9457 38.699 85.1199 39.4731C85.2942 40.2471 85.3734 41.1002 85.3734 42.0322C85.3734 42.6088 85.3734 43.0353 85.3496 43.3038L85.3655 43.3117Z" fill="#004443"/>
<path d="M92.8034 44.0696H99.0135C98.9819 42.956 98.8155 42.1345 98.4987 41.5974C98.1977 41.0761 97.7858 40.6496 97.2471 40.3337C96.7085 40.0177 96.1303 39.8203 95.5045 39.765C95.354 39.7492 95.1322 39.7334 94.8233 39.7334C93.9123 39.7334 93.0727 39.9151 92.2885 40.2626C91.5043 40.618 90.8706 41.1314 90.3875 41.8028C89.9043 42.4742 89.627 43.2719 89.5637 44.1881V44.5357C89.5637 45.4835 89.8013 46.3128 90.2845 47.0316C90.7677 47.7424 91.3934 48.2874 92.1776 48.6665C92.9618 49.0457 93.7856 49.2273 94.6569 49.2273C95.4649 49.2273 96.2412 49.0536 96.9857 48.7139C97.7303 48.3743 98.3482 47.8688 98.8393 47.1974L98.1343 46.5814C97.263 47.5134 96.3916 47.9715 95.5282 47.9715C95.4807 47.9715 95.4174 47.9715 95.3302 47.9636C95.2431 47.9557 95.1797 47.9557 95.1322 47.9557C93.5559 47.7266 92.7717 46.5103 92.7717 44.2987C92.7717 44.275 92.7717 44.2355 92.7796 44.1723C92.7796 44.1091 92.7876 44.0775 92.7876 44.0618L92.8034 44.0696ZM93.2707 41.3368C93.5797 40.8076 94.047 40.5469 94.6569 40.5469C95.7263 40.5627 96.2649 41.4158 96.2649 43.0981H92.8034C92.8034 42.4505 92.9618 41.8581 93.2707 41.3368Z" fill="#004443"/>
<path d="M109.762 47.1107V42.9798C109.762 41.1 109.002 40.0337 107.473 39.7731C107.18 39.7415 106.958 39.7178 106.816 39.7178C105.485 39.7178 104.321 40.3181 103.331 41.5107L103.212 39.7731C102.911 39.7731 102.396 39.8757 101.675 40.0732C100.725 40.2707 99.9245 40.3812 99.2591 40.4207V41.1711C99.7898 41.2185 100.138 41.3212 100.313 41.487C100.487 41.6529 100.574 42.0004 100.574 42.5375V47.0949C100.566 47.5767 100.471 47.8848 100.305 48.0111C100.138 48.1454 99.7898 48.2244 99.2591 48.2481V48.9826C100.463 48.9511 101.382 48.9353 102.016 48.9353C102.649 48.9353 103.544 48.9511 104.748 48.9826V48.2481C104.297 48.2481 103.972 48.1533 103.774 47.9716C103.576 47.79 103.481 47.4898 103.481 47.0633C103.481 47.0159 103.481 46.9922 103.505 46.9922V43.7855C103.505 43.1852 103.639 42.6402 103.909 42.1505C104.178 41.6608 104.598 41.3527 105.152 41.2422C105.35 41.2106 105.493 41.1948 105.572 41.1948C106 41.1948 106.317 41.3607 106.515 41.6924C106.713 42.0241 106.816 42.4506 106.816 42.9561V47.087C106.816 47.5451 106.737 47.8532 106.57 48.0111C106.404 48.1612 106.087 48.2402 105.62 48.2402V48.9747C106.792 48.9432 107.687 48.9274 108.305 48.9274C108.923 48.9274 109.842 48.9432 111.006 48.9747V48.2402C110.491 48.1928 110.159 48.1059 110 47.9795C109.842 47.8532 109.762 47.5609 109.762 47.087V47.1107Z" fill="#004443"/>
<path d="M116.464 47.6322C116.226 47.7902 116.012 47.8692 115.83 47.8692C115.648 47.8692 115.505 47.7823 115.379 47.6085C115.26 47.4348 115.196 47.1741 115.196 46.8345V40.8949H117.383V39.947H115.196V37.0957H114.388C114.04 37.9329 113.628 38.5964 113.153 39.0861C112.677 39.5758 112.036 39.9076 111.228 40.0892V40.887H112.297V46.4317C112.297 46.4317 112.297 46.4633 112.281 46.5028C112.281 46.5422 112.273 46.5659 112.273 46.5738C112.273 47.4427 112.456 48.0982 112.812 48.5485C113.169 48.9987 113.802 49.2198 114.713 49.2198C116.028 49.2198 117.05 48.6906 117.787 47.6401L117.082 47.0478C116.915 47.2847 116.709 47.4822 116.472 47.6401L116.464 47.6322Z" fill="#004443"/>
<path d="M126.793 47.7901C126.563 47.7901 126.452 47.5926 126.452 47.2056V42.3954C126.452 41.4634 126.072 40.7841 125.32 40.3576C124.559 39.9232 123.632 39.71 122.531 39.71C121.747 39.71 121.01 39.8047 120.329 39.9943C119.648 40.1839 119.165 40.4287 118.872 40.721C118.626 41.0053 118.507 41.3133 118.507 41.6451C118.507 41.9768 118.618 42.2454 118.84 42.4981C119.062 42.7509 119.323 42.8772 119.624 42.8772C119.822 42.8772 120.052 42.8062 120.305 42.664C120.496 42.5534 120.63 42.4349 120.702 42.3007C120.781 42.1664 120.876 41.9531 121.01 41.653C121.137 41.3528 121.264 41.1396 121.375 41.0211C121.644 40.7052 122.009 40.5472 122.468 40.5472C122.603 40.5472 122.753 40.563 122.912 40.5946C123.403 40.7605 123.64 41.2265 123.64 41.9847V42.3559C123.64 42.7509 123.474 43.0273 123.125 43.1774C123.078 43.2169 122.88 43.3038 122.531 43.4222C122.175 43.5407 121.874 43.6434 121.62 43.7303C120.599 44.1015 119.838 44.4411 119.331 44.765C118.935 45.0177 118.626 45.3416 118.404 45.7365C118.175 46.1314 118.064 46.5421 118.064 46.9607C118.064 47.2609 118.151 47.6242 118.333 48.0428C118.721 48.8327 119.466 49.2197 120.575 49.2197H120.749C121.248 49.2118 121.715 49.0933 122.151 48.8722C122.595 48.651 123.062 48.343 123.577 47.948C123.751 48.4141 123.981 48.7379 124.266 48.9353C124.551 49.1249 124.955 49.2197 125.478 49.2197C125.945 49.2197 126.413 49.117 126.872 48.9038C127.331 48.6905 127.696 48.4061 127.965 48.0428L127.522 47.4978C127.173 47.7032 126.935 47.8059 126.793 47.8059V47.7901ZM123.561 46.1946C123.561 46.55 123.403 46.8739 123.094 47.1582C122.777 47.4425 122.452 47.5847 122.104 47.5847C121.779 47.5847 121.541 47.4583 121.375 47.2135C121.177 47.0002 121.082 46.708 121.082 46.3368C121.082 46.1235 121.137 45.8392 121.248 45.4679C121.422 45.0809 121.715 44.7729 122.119 44.5438C122.523 44.3148 123.007 44.1173 123.569 43.9593V46.2025L123.561 46.1946Z" fill="#004443"/>
<path d="M132.718 47.1583V34.4023C131.229 34.892 129.811 35.1606 128.472 35.2001V35.9346C128.884 35.9662 129.201 36.0294 129.438 36.1242C129.676 36.219 129.787 36.4007 129.787 36.685V47.1583C129.787 47.6086 129.684 47.9087 129.47 48.043C129.256 48.1772 128.892 48.2562 128.369 48.2641V48.9987C129.13 48.9355 130.009 48.9039 131.007 48.9039C131.72 48.9039 132.765 48.9355 134.128 48.9987V48.2641C133.66 48.2404 133.304 48.1456 133.066 47.9956C132.829 47.8455 132.71 47.5612 132.71 47.1583H132.718Z" fill="#004443"/>
<path d="M149.962 41.677C149.574 41.3848 149.154 41.1162 148.695 40.8793C148.235 40.6423 147.76 40.4211 147.277 40.2158C146.786 40.0104 146.279 39.7972 145.732 39.5681C144.71 39.1021 144.196 38.4939 144.196 37.7515C144.196 37.3092 144.338 36.9221 144.623 36.5904C144.908 36.2587 145.281 36.0454 145.732 35.9585C145.867 35.9427 146.057 35.9348 146.318 35.9348C147.031 35.9348 147.641 36.0849 148.148 36.385C148.948 36.8826 149.511 37.7436 149.859 38.952H150.81C150.762 37.6567 150.738 36.3771 150.738 35.1134H149.74L149.471 35.9822C148.473 35.2793 147.38 34.9238 146.184 34.9238C144.52 34.9238 143.277 35.453 142.453 36.5035C141.978 37.1512 141.748 37.9173 141.748 38.7941C141.748 39.813 142.065 40.6739 142.698 41.3848C143.126 41.8666 143.57 42.2299 144.021 42.4747C144.481 42.7196 145.13 43.0197 145.986 43.3752C146.833 43.7306 147.475 44.0702 147.911 44.3862C148.513 44.8522 148.814 45.4209 148.814 46.108C148.814 46.6372 148.623 47.1111 148.235 47.5298C147.847 47.9484 147.332 48.1932 146.699 48.2564C146.58 48.2722 146.406 48.2801 146.16 48.2801C145.186 48.2801 144.401 47.9326 143.807 47.2454C143.213 46.5582 142.786 45.6736 142.5 44.5994H141.526C141.574 45.3893 141.605 46.1238 141.605 46.7952C141.605 47.4666 141.582 48.2011 141.526 48.9673H142.524L142.77 47.98C143.364 48.446 143.942 48.7777 144.497 48.9752C145.051 49.1726 145.716 49.2753 146.477 49.2753H146.572C147.522 49.2753 148.417 49.0936 149.241 48.7224C150.073 48.3512 150.699 47.7904 151.126 47.04C151.467 46.3766 151.641 45.6973 151.641 44.9865C151.641 44.1097 151.412 43.3594 150.96 42.7275C150.691 42.3405 150.366 42.0008 149.978 41.7007L149.962 41.677Z" fill="#004443"/>
<path d="M157.091 47.6322C156.853 47.7902 156.64 47.8692 156.457 47.8692C156.275 47.8692 156.133 47.7823 156.006 47.6085C155.887 47.4348 155.824 47.1741 155.824 46.8345V40.8949H158.01V39.947H155.824V37.0957H155.016C154.667 37.9329 154.255 38.5964 153.78 39.0861C153.305 39.5758 152.663 39.9076 151.855 40.0892V40.887H152.925V46.4317C152.925 46.4317 152.925 46.4633 152.909 46.5028C152.909 46.5422 152.901 46.5659 152.901 46.5738C152.901 47.4427 153.083 48.0982 153.439 48.5485C153.796 48.9987 154.43 49.2198 155.341 49.2198C156.655 49.2198 157.677 48.6906 158.414 47.6401L157.709 47.0478C157.543 47.2847 157.337 47.4822 157.099 47.6401L157.091 47.6322Z" fill="#004443"/>
<path d="M170.232 47.7269C169.828 47.7269 169.535 47.6716 169.337 47.5689C169.139 47.4662 169.044 47.2214 169.044 46.8501V39.8916C168.466 39.9074 167.856 39.9232 167.214 39.9232C166.573 39.9232 165.788 39.9232 164.854 39.939V40.6499C165.258 40.6893 165.543 40.7604 165.717 40.8473C165.891 40.9342 166.01 41.0764 166.066 41.2659C166.121 41.4555 166.145 41.7635 166.145 42.1822V44.449C166.145 45.3099 166.026 46.0366 165.788 46.629C165.551 47.2214 165.068 47.5689 164.339 47.6795C164.307 47.6795 164.252 47.6795 164.173 47.7032C164.093 47.719 164.046 47.7269 164.022 47.7269C163.626 47.7269 163.333 47.5768 163.135 47.2845C162.945 46.9844 162.85 46.629 162.85 46.2025V39.8995C161.923 39.9311 160.545 39.9469 158.707 39.9469V40.6578C159.119 40.713 159.412 40.7999 159.578 40.9105C159.745 41.0211 159.856 41.1712 159.887 41.3607C159.927 41.5503 159.943 41.8662 159.943 42.3164V46.3446C159.943 47.2135 160.141 47.8927 160.545 48.3666C160.949 48.8405 161.598 49.117 162.501 49.2039H162.818C163.475 49.2039 164.101 49.0459 164.679 48.73C165.266 48.414 165.773 47.9796 166.208 47.4346L166.375 49.1091C166.493 49.1091 166.945 49.0301 167.737 48.8721C168.505 48.6984 169.361 48.5483 170.319 48.4219V47.7111C170.319 47.7111 170.303 47.7111 170.272 47.719C170.24 47.7269 170.224 47.7269 170.216 47.7269H170.232Z" fill="#004443"/>
<path d="M181.076 46.8503V34.4023C180.015 34.6867 178.502 34.8762 176.545 34.9631V35.6977C177.116 35.7293 177.528 35.8004 177.789 35.9109C178.05 36.0215 178.177 36.2901 178.177 36.7166V40.9107C177.33 40.0971 176.347 39.6864 175.23 39.6864C174.454 39.6864 173.717 39.8918 173.012 40.2946C172.308 40.6974 171.737 41.2661 171.309 41.9928C170.882 42.7194 170.668 43.5409 170.668 44.4571C170.668 44.4571 170.668 44.4808 170.676 44.5045C170.676 44.5282 170.684 44.544 170.684 44.5518C170.707 45.2706 170.842 45.9578 171.104 46.6212C171.365 47.2847 171.753 47.8455 172.268 48.3036C172.783 48.7617 173.409 49.0461 174.145 49.1487C174.47 49.1961 174.787 49.2198 175.096 49.2198C176.347 49.2198 177.385 48.6669 178.217 47.5691L178.438 49.1961C179.777 48.8407 181.124 48.5801 182.486 48.4221V47.7112C182.043 47.6796 181.694 47.6085 181.448 47.5138C181.203 47.4111 181.076 47.1978 181.076 46.8661V46.8503ZM178.13 45.318C178.114 46.0289 177.939 46.5975 177.599 47.032C177.258 47.4664 176.735 47.7033 176.03 47.727C176.03 47.727 176.007 47.727 175.967 47.7349C175.927 47.7428 175.912 47.7428 175.904 47.7428C175.23 47.7428 174.731 47.4506 174.415 46.874C174.09 46.2974 173.923 45.6339 173.908 44.8836C173.908 44.8441 173.908 44.7809 173.892 44.6782C173.892 44.5834 173.884 44.5203 173.884 44.4808C173.884 43.5487 174.05 42.7431 174.375 42.048C174.708 41.3609 175.278 41.0054 176.102 40.9818H176.125C176.735 40.9818 177.219 41.1871 177.583 41.5978C177.947 42.0086 178.13 42.5061 178.13 43.1064V45.3022V45.318Z" fill="#004443"/>
<path d="M185.29 37.7665C185.29 37.7665 185.369 37.7665 185.425 37.7823C185.48 37.7981 185.52 37.7981 185.56 37.7981C185.892 37.7981 186.209 37.7033 186.51 37.5059C186.811 37.3084 187.033 37.0715 187.168 36.7792C187.231 36.5186 187.27 36.3132 187.27 36.171C187.27 35.5549 187.033 35.0889 186.566 34.7809C186.257 34.6229 185.932 34.5439 185.591 34.5439C185.251 34.5439 184.934 34.6308 184.657 34.8046C184.379 34.9784 184.173 35.2232 184.039 35.5392C183.952 35.8709 183.912 36.0762 183.912 36.1552C183.912 36.5344 184.047 36.8819 184.316 37.1978C184.585 37.5138 184.91 37.7112 185.306 37.7744L185.29 37.7665Z" fill="#004443"/>
<path d="M187.247 47.1578V39.6543C187.12 39.6543 187.001 39.6701 186.874 39.6938C186.748 39.7175 186.589 39.757 186.399 39.8123C186.209 39.8676 186.043 39.907 185.908 39.9386C184.95 40.1203 183.952 40.2704 182.906 40.3889V41.0997C183.429 41.1234 183.785 41.2103 183.967 41.3683C184.15 41.5262 184.245 41.8422 184.245 42.324V47.1578C184.245 47.6001 184.15 47.8845 183.967 48.003C183.777 48.1214 183.429 48.2004 182.906 48.2399V48.9903C184.173 48.9587 185.124 48.9429 185.765 48.9429C186.074 48.9429 186.542 48.9429 187.175 48.9508C187.809 48.9587 188.284 48.9587 188.593 48.9587V48.2241C188.07 48.1846 187.722 48.1056 187.532 47.9872C187.342 47.8687 187.255 47.5843 187.255 47.142L187.247 47.1578Z" fill="#004443"/>
<path d="M198.518 41.969C198.027 41.2108 197.378 40.6184 196.562 40.1761C195.746 39.7417 194.875 39.5205 193.948 39.5205C193.021 39.5205 192.166 39.7417 191.374 40.1761C190.574 40.6105 189.94 41.2029 189.457 41.9532C188.974 42.7036 188.736 43.5171 188.736 44.4017C188.736 45.3338 188.981 46.1868 189.48 46.9687C189.979 47.7507 190.645 48.3668 191.477 48.817C192.308 49.2672 193.188 49.4962 194.122 49.4962C195.057 49.4962 195.897 49.2672 196.681 48.8091C197.473 48.351 198.099 47.727 198.566 46.9529C199.033 46.171 199.263 45.3417 199.263 44.457C199.263 43.5724 199.017 42.7352 198.526 41.9769L198.518 41.969ZM195.683 47.2136C195.437 47.9797 194.859 48.3668 193.964 48.3826C192.578 48.3826 191.888 47.2215 191.888 44.8914C191.888 44.8599 191.888 44.8125 191.904 44.7414C191.912 44.6782 191.92 44.615 191.92 44.5597C191.92 43.8726 191.96 43.2486 192.047 42.6878C192.126 42.1349 192.324 41.6452 192.641 41.2187C192.958 40.7922 193.417 40.5789 194.035 40.5789C194.883 40.5789 195.429 40.9501 195.675 41.6926C195.928 42.435 196.055 43.3197 196.055 44.3465C196.055 45.4917 195.928 46.4474 195.683 47.2136Z" fill="#004443"/>
<path d="M136.892 57.2837C137.32 57.102 137.605 56.7308 137.605 56.17C137.605 55.3723 137.003 54.9062 135.958 54.9062H133.938V59.8112H136.092C137.265 59.8112 137.851 59.3373 137.851 58.5C137.851 57.8366 137.486 57.418 136.884 57.2837H136.892ZM134.437 55.3407H135.934C136.686 55.3407 137.122 55.6408 137.122 56.2332C137.122 56.8256 136.686 57.1257 135.934 57.1257H134.437V55.3486V55.3407ZM136.092 59.3847H134.437V57.5443H136.092C136.916 57.5443 137.368 57.8208 137.368 58.4606C137.368 59.1003 136.916 59.3847 136.092 59.3847Z" fill="#004443"/>
<path d="M140.053 59.2586L138.73 56.1309H138.239L139.815 59.8036L139.665 60.1591C139.467 60.6172 139.253 60.7751 138.936 60.7751C138.682 60.7751 138.469 60.6804 138.294 60.4987L138.073 60.8699C138.286 61.0911 138.603 61.2096 138.928 61.2096C139.427 61.2096 139.807 60.9805 140.1 60.2539L141.859 56.1309H141.392L140.069 59.2586H140.053Z" fill="#004443"/>
<path d="M146.279 54.9141H144.37V59.819H146.279C147.776 59.819 148.79 58.808 148.79 57.3705C148.79 55.933 147.776 54.922 146.279 54.922V54.9141ZM146.247 59.3609H144.861V55.3564H146.247C147.491 55.3564 148.299 56.1857 148.299 57.3626C148.299 58.5394 147.499 59.3688 146.247 59.3688V59.3609Z" fill="#004443"/>
<path d="M150.255 56.8491V56.1303H149.796V59.811H150.271V57.9312C150.271 57.0623 150.723 56.5726 151.459 56.5726C151.491 56.5726 151.53 56.5726 151.57 56.5726V56.0908C150.921 56.0908 150.469 56.3515 150.247 56.8412L150.255 56.8491Z" fill="#004443"/>
<path d="M152.457 59.085C152.259 59.085 152.101 59.2429 152.101 59.4641C152.101 59.6852 152.259 59.8511 152.457 59.8511C152.655 59.8511 152.822 59.6852 152.822 59.4641C152.822 59.2429 152.655 59.085 152.457 59.085Z" fill="#004443"/>
<path d="M155.84 56.202C155.84 55.7123 156.22 55.3095 157.075 55.3095C157.487 55.3095 157.962 55.4438 158.359 55.7123L158.525 55.3016C158.153 55.0252 157.598 54.8672 157.075 54.8672C155.887 54.8672 155.348 55.4912 155.348 56.2099C155.348 58.0266 158.232 57.1972 158.232 58.54C158.232 59.0218 157.852 59.4088 156.972 59.4088C156.354 59.4088 155.76 59.156 155.428 58.8164L155.23 59.2192C155.578 59.5984 156.267 59.859 156.972 59.859C158.168 59.859 158.723 59.2429 158.723 58.5242C158.723 56.7391 155.84 57.5527 155.84 56.2099V56.202Z" fill="#004443"/>
<path d="M160.933 56.0996C160.378 56.0996 159.856 56.2813 159.499 56.5972L159.713 56.9684C159.998 56.6999 160.434 56.534 160.885 56.534C161.543 56.534 161.883 56.8737 161.883 57.5055V57.7267H160.766C159.753 57.7267 159.404 58.2006 159.404 58.7693C159.404 59.4091 159.895 59.8435 160.687 59.8435C161.273 59.8435 161.685 59.6144 161.899 59.2353V59.8119H162.351V57.5292C162.351 56.5735 161.836 56.0996 160.925 56.0996H160.933ZM161.883 58.7061C161.693 59.1879 161.297 59.4564 160.766 59.4564C160.204 59.4564 159.879 59.1879 159.879 58.7614C159.879 58.3823 160.101 58.1058 160.782 58.1058H161.883V58.7061Z" fill="#004443"/>
<path d="M168.339 59.2586L167.016 56.1309H166.074L164.751 59.2586L163.428 56.1309H162.937L164.513 59.8036L164.363 60.1591C164.165 60.6172 163.951 60.7751 163.634 60.7751C163.38 60.7751 163.167 60.6804 162.992 60.4987L162.771 60.8699C162.984 61.0911 163.301 61.2096 163.626 61.2096C164.125 61.2096 164.505 60.9805 164.798 60.2539L166.549 56.1546L168.109 59.8036L167.959 60.1591C167.761 60.6172 167.547 60.7751 167.23 60.7751C166.977 60.7751 166.763 60.6804 166.589 60.4987L166.367 60.8699C166.581 61.0911 166.897 61.2096 167.222 61.2096C167.721 61.2096 168.101 60.9805 168.395 60.2539L170.153 56.1309H169.686L168.363 59.2586H168.339Z" fill="#004443"/>
<path d="M171.048 54.6143C170.85 54.6143 170.7 54.7722 170.7 54.9618C170.7 55.1514 170.858 55.3172 171.048 55.3172C171.238 55.3172 171.397 55.1593 171.397 54.9539C171.397 54.7643 171.246 54.6143 171.048 54.6143Z" fill="#004443"/>
<path d="M171.278 56.1309H170.803V59.8115H171.278V56.1309Z" fill="#004443"/>
<path d="M175.341 56.8258C175.048 56.3519 174.565 56.0992 174.003 56.0992C172.997 56.0992 172.252 56.8574 172.252 57.9711C172.252 59.0848 173.005 59.8509 174.003 59.8509C174.589 59.8509 175.072 59.5824 175.365 59.0848V59.8114H175.825V54.6143H175.349V56.8258H175.341ZM174.042 59.4086C173.29 59.4086 172.727 58.832 172.727 57.9711C172.727 57.1102 173.29 56.5336 174.042 56.5336C174.795 56.5336 175.349 57.1102 175.349 57.9711C175.349 58.832 174.787 59.4086 174.042 59.4086Z" fill="#004443"/>
<path d="M182.811 54.9141H182.241L179.492 57.876V54.9141H178.993V59.8111H179.492V58.5237L180.45 57.5048L182.359 59.8111H182.954L180.783 57.1335L182.811 54.9141Z" fill="#004443"/>
<path d="M184.791 56.0996C184.237 56.0996 183.714 56.2813 183.357 56.5972L183.571 56.9684C183.857 56.6999 184.292 56.534 184.744 56.534C185.401 56.534 185.742 56.8737 185.742 57.5055V57.7267H184.625C183.611 57.7267 183.262 58.2006 183.262 58.7693C183.262 59.4091 183.754 59.8435 184.546 59.8435C185.132 59.8435 185.544 59.6144 185.758 59.2353V59.8119H186.209V57.5292C186.209 56.5735 185.694 56.0996 184.783 56.0996H184.791ZM185.742 58.7061C185.552 59.1879 185.156 59.4564 184.625 59.4564C184.062 59.4564 183.738 59.1879 183.738 58.7614C183.738 58.3823 183.959 58.1058 184.641 58.1058H185.742V58.7061Z" fill="#004443"/>
<path d="M187.619 57.1343C187.619 56.7868 187.904 56.5261 188.538 56.5261C188.902 56.5261 189.267 56.6209 189.576 56.8421L189.782 56.4392C189.488 56.226 188.989 56.0996 188.538 56.0996C187.643 56.0996 187.144 56.5498 187.144 57.1501C187.144 58.6034 189.425 57.8531 189.425 58.8088C189.425 59.1721 189.148 59.4091 188.482 59.4091C187.983 59.4091 187.508 59.2274 187.231 58.9983L187.017 59.3933C187.302 59.6539 187.865 59.8514 188.451 59.8514C189.37 59.8514 189.9 59.4407 189.9 58.8009C189.9 57.3871 187.619 58.1374 187.619 57.1422V57.1343Z" fill="#004443"/>
<path d="M191.017 54.6143C190.819 54.6143 190.669 54.7722 190.669 54.9618C190.669 55.1514 190.827 55.3172 191.017 55.3172C191.207 55.3172 191.366 55.1593 191.366 54.9539C191.366 54.7643 191.215 54.6143 191.017 54.6143Z" fill="#004443"/>
<path d="M191.255 56.1309H190.78V59.8115H191.255V56.1309Z" fill="#004443"/>
<path d="M196.974 56.0996C196.34 56.0996 195.833 56.3997 195.58 56.8737C195.366 56.3524 194.906 56.0996 194.328 56.0996C193.75 56.0996 193.283 56.3603 193.037 56.8026V56.1312H192.578V59.8119H193.053V57.8768C193.053 57.0395 193.512 56.5498 194.233 56.5498C194.875 56.5498 195.255 56.9526 195.255 57.7267V59.8119H195.73V57.8768C195.73 57.0395 196.19 56.5498 196.911 56.5498C197.544 56.5498 197.924 56.9526 197.924 57.7267V59.8119H198.4V57.6793C198.4 56.6209 197.837 56.1075 196.982 56.1075L196.974 56.0996Z" fill="#004443"/>
</svg>
