<svg width="258" height="93" viewBox="0 0 258 93" fill="none" xmlns="http://www.w3.org/2000/svg">
<path d="M11.2324 27.3952L37.4807 62.8476C37.7477 63.2157 37.7579 63.7168 37.4807 64.0849L24.3463 82.3275C20.865 87.154 13.2658 85.3747 12.3107 79.5154L0.696192 8.45724C-0.00211775 4.16246 3.55105 0.358506 7.90521 0.757307L50.1118 4.60216C50.6869 4.65329 50.7691 5.45089 50.2248 5.62473L14.5494 17.1082C10.2055 18.5091 8.5111 23.7344 11.2222 27.3952H11.2324Z" fill="#FFF9F2"/>
<path d="M82.4805 3.74385L68.8224 90.2224C68.5349 92.0527 66.974 92.8913 65.6595 92.8913C64.9509 92.8913 63.9445 92.6663 63.1538 91.6028L40.0993 60.4554L14.077 25.3098C13.4711 24.4815 13.2965 23.4487 13.6149 22.4773C13.9332 21.5058 14.6726 20.7594 15.6482 20.4424L61.6339 5.64583L78.3934 0.2569C78.722 0.154644 79.0609 0.103516 79.3895 0.103516C80.3034 0.103516 81.1763 0.512543 81.7822 1.22834C82.1314 1.63737 82.6859 2.50655 82.4908 3.75408L82.4805 3.74385Z" fill="#FFF9F2"/>
<path d="M103.009 38.8675C104.241 38.8879 105.155 38.9084 105.751 38.9186V37.8551C104.765 37.8551 104.056 37.712 103.625 37.4256C103.194 37.1393 102.978 36.5565 102.978 35.6873V30.8608C103.153 30.8608 103.409 30.8608 103.769 30.871C104.128 30.8812 104.395 30.8812 104.59 30.8812C105.956 30.8812 107.158 30.779 108.195 30.5847C109.232 30.3904 110.136 29.9813 110.906 29.3883C111.419 28.9895 111.81 28.4782 112.077 27.8442C112.344 27.2102 112.487 26.5558 112.487 25.8706C112.487 24.8072 112.2 23.938 111.635 23.2426C110.875 22.353 109.899 21.7804 108.688 21.5247C107.476 21.2589 106.028 21.1361 104.334 21.1361H103.296C102.711 21.1361 102.033 21.1464 101.242 21.1668C100.452 21.1873 99.8561 21.1975 99.4351 21.1975C98.973 21.1975 98.4081 21.1873 97.7406 21.1566C97.0731 21.1259 96.5699 21.1157 96.2413 21.1055V22.1383C97.1758 22.2201 97.8125 22.3837 98.1514 22.6189C98.4903 22.8541 98.6546 23.396 98.6546 24.2141V35.6975C98.6546 36.4951 98.48 37.0268 98.1206 37.2927C97.7612 37.5688 97.1348 37.7426 96.2516 37.8347V38.8981C97.5763 38.8368 98.9216 38.8061 100.267 38.8061C100.862 38.8061 101.776 38.8163 103.009 38.847V38.8675ZM102.978 23.1404V23.0995C102.978 22.6291 103.399 22.3939 104.241 22.3939H104.426C105.227 22.3939 105.925 22.578 106.521 22.9563C107.116 23.3244 107.507 23.8766 107.681 24.5924C107.784 25.0526 107.846 25.523 107.846 26.0036C107.846 26.6682 107.733 27.2715 107.496 27.8135C107.26 28.3555 106.901 28.7645 106.418 29.0201C105.761 29.3883 104.796 29.5723 103.512 29.5723H102.978V23.1302V23.1404Z" fill="white"/>
<path d="M116.759 38.8688C117.17 38.8688 117.796 38.8688 118.628 38.879C119.46 38.879 120.097 38.8892 120.518 38.8892V37.9383C119.84 37.9178 119.347 37.836 119.049 37.6928C118.741 37.5497 118.597 37.1918 118.597 36.6294V31.6495C118.597 31.1382 118.741 30.5962 119.039 30.0134C119.337 29.4305 119.727 29.1442 120.21 29.1442C120.395 29.1442 120.641 29.3078 120.918 29.6452C121.206 29.9827 121.422 30.2179 121.586 30.3508C121.74 30.4837 121.997 30.5553 122.356 30.5553C122.356 30.5553 122.52 30.5246 122.828 30.4633C123.229 30.3713 123.527 30.177 123.732 29.9009C123.938 29.6248 124.03 29.2976 124.03 28.9397C124.03 28.5818 123.938 28.2341 123.763 27.9069C123.578 27.5796 123.321 27.3445 122.993 27.2013C122.664 27.0581 122.294 26.9968 121.884 26.9968C120.621 26.9968 119.46 27.733 118.382 29.1953L118.156 26.8945C117.807 26.8945 117.324 26.9866 116.698 27.1604C116.082 27.3342 115.691 27.4467 115.527 27.4774C114.603 27.6206 113.771 27.733 113.021 27.8148V28.7658C113.771 28.7863 114.243 28.9908 114.438 29.3691C114.634 29.7475 114.736 30.3508 114.736 31.1791V36.6396C114.736 37.3963 114.161 37.836 113.021 37.9485V38.8995C113.432 38.8995 114.048 38.8995 114.87 38.8892C115.702 38.8892 116.328 38.879 116.749 38.879L116.759 38.8688Z" fill="white"/>
<path d="M127.922 38.5012C128.939 38.9921 130.007 39.2273 131.136 39.2273C132.184 39.2273 133.19 39.0023 134.155 38.5626C135.121 38.1229 135.922 37.4684 136.558 36.5993L135.644 35.8017C134.515 37.0083 133.385 37.6014 132.266 37.6014C132.215 37.6014 132.122 37.6014 132.009 37.5912C131.896 37.5809 131.814 37.5809 131.752 37.5809C129.709 37.2844 128.692 35.7096 128.692 32.8464C128.692 32.8158 128.692 32.7646 128.713 32.6828C128.713 32.601 128.723 32.5601 128.723 32.5397H136.774C136.733 31.0979 136.517 30.0344 136.107 29.339C135.716 28.6641 135.182 28.112 134.484 27.7029C133.786 27.2939 133.036 27.0383 132.225 26.9667C132.03 26.9462 131.742 26.9258 131.342 26.9258C130.161 26.9258 129.072 27.161 128.056 27.6109C127.039 28.0711 126.217 28.7357 125.591 29.6049C124.964 30.4741 124.605 31.5069 124.523 32.6931V33.143C124.523 34.3701 124.831 35.4438 125.457 36.3743C126.084 37.2946 126.895 38.0002 127.912 38.491L127.922 38.5012ZM129.349 29.0118C129.76 28.3267 130.356 27.9893 131.147 27.9893C132.533 28.0097 133.231 29.1141 133.231 31.2921H128.744C128.744 30.4536 128.949 29.6867 129.349 29.0118Z" fill="white"/>
<path d="M143.901 38.9189V37.9474C143.48 37.9168 143.162 37.835 142.946 37.6918C142.73 37.5486 142.597 37.3544 142.535 37.1192C142.474 36.8738 142.443 36.5465 142.443 36.1171V32.2415C142.443 31.3928 142.648 30.6054 143.069 29.8998C143.49 29.184 144.086 28.8159 144.877 28.7955H145.031C146.047 28.7955 146.55 29.4397 146.55 30.7179V36.3113C146.53 36.7613 146.479 37.0885 146.407 37.293C146.335 37.4975 146.191 37.6509 145.986 37.7532C145.78 37.8554 145.462 37.9168 145.031 37.9577V38.9291C146.376 38.8882 147.382 38.8678 148.029 38.8678C148.871 38.8678 150.093 38.8882 151.706 38.9291V37.9577C151.069 37.9065 150.668 37.7532 150.514 37.5077C150.36 37.2623 150.278 36.8022 150.278 36.1273V32.2517C150.278 31.3928 150.484 30.6156 150.884 29.9101C151.295 29.2045 151.901 28.8364 152.712 28.7955H152.804C153.862 28.7955 154.386 29.4806 154.386 30.8406V36.1886C154.365 36.8635 154.273 37.3135 154.078 37.5486C153.883 37.7838 153.472 37.927 152.835 37.9883V38.9393C154.345 38.8984 155.485 38.878 156.245 38.878C157.066 38.878 158.216 38.8984 159.695 38.9393V37.9679C159.007 37.927 158.565 37.8043 158.36 37.6202C158.155 37.4362 158.052 37.0374 158.052 36.434C158.052 36.4136 158.052 36.3727 158.073 36.3113C158.073 36.25 158.083 36.2091 158.083 36.1886V31.0247C158.083 29.9817 157.939 29.1431 157.651 28.5092C157.364 27.8752 156.768 27.415 155.865 27.1185C155.259 26.9753 154.766 26.9037 154.386 26.9037C152.753 26.9037 151.346 27.6604 150.186 29.1636C149.549 27.6809 148.419 26.9344 146.776 26.9344H146.612C144.887 26.9651 143.47 27.7422 142.35 29.2556L142.165 26.873C142.001 26.873 141.837 26.8935 141.673 26.9242C141.508 26.9549 141.303 27.006 141.067 27.0776C140.83 27.1491 140.646 27.19 140.522 27.2207C139.228 27.507 138.099 27.7013 137.134 27.8036V28.7239C137.76 28.7341 138.171 28.8671 138.386 29.1227C138.602 29.3681 138.715 29.7874 138.715 30.3702V36.4443C138.715 37.0067 138.602 37.385 138.376 37.5691C138.15 37.7532 137.729 37.8963 137.103 37.9679V38.9393C138.623 38.8984 139.752 38.878 140.481 38.878C141.21 38.878 142.371 38.8984 143.901 38.9393V38.9189Z" fill="white"/>
<path d="M163.207 24.3889C163.207 24.3889 163.31 24.3889 163.382 24.4093C163.454 24.4298 163.505 24.4298 163.556 24.4298C163.988 24.4298 164.398 24.3071 164.789 24.0514C165.179 23.7958 165.466 23.489 165.641 23.1107C165.723 22.7732 165.774 22.5073 165.774 22.3233C165.774 21.5257 165.466 20.9224 164.86 20.5236C164.46 20.3191 164.039 20.2168 163.597 20.2168C163.156 20.2168 162.745 20.3293 162.386 20.5542C162.026 20.7792 161.759 21.0962 161.585 21.5052C161.472 21.9347 161.42 22.2006 161.42 22.3028C161.42 22.7937 161.595 23.2436 161.944 23.6526C162.293 24.0616 162.714 24.3173 163.228 24.3991L163.207 24.3889Z" fill="white"/>
<path d="M167.469 37.9473C166.791 37.8962 166.339 37.7939 166.093 37.6406C165.846 37.4872 165.733 37.1191 165.733 36.5464V26.832C165.569 26.832 165.415 26.8525 165.251 26.8832C165.086 26.9138 164.881 26.965 164.635 27.0365C164.388 27.1081 164.172 27.1593 163.998 27.2002C162.755 27.4353 161.461 27.6296 160.106 27.783V28.7033C160.784 28.734 161.246 28.8465 161.482 29.051C161.718 29.2555 161.841 29.6645 161.841 30.2883V36.5464C161.841 37.1191 161.718 37.4872 161.482 37.6406C161.235 37.7939 160.784 37.8962 160.106 37.9473V38.9188C161.749 38.8779 162.981 38.8574 163.813 38.8574C164.214 38.8574 164.819 38.8574 165.641 38.8676C166.463 38.8779 167.079 38.8779 167.479 38.8779V37.9269L167.469 37.9473Z" fill="white"/>
<path d="M182.729 37.2426C182.729 37.2426 182.708 37.2426 182.667 37.2528C182.626 37.263 182.606 37.263 182.596 37.263C182.072 37.263 181.692 37.1914 181.435 37.0585C181.178 36.9256 181.055 36.6086 181.055 36.128V27.1191C180.305 27.1396 179.515 27.16 178.683 27.16C177.851 27.16 176.834 27.16 175.623 27.1805V28.1008C176.146 28.1519 176.516 28.244 176.742 28.3564C176.968 28.4689 177.122 28.653 177.194 28.8984C177.266 29.1438 177.297 29.5426 177.297 30.0846V33.0193C177.297 34.1339 177.143 35.0747 176.834 35.8416C176.526 36.6086 175.9 37.0585 174.955 37.2016C174.914 37.2016 174.842 37.2017 174.74 37.2323C174.637 37.2528 174.575 37.263 174.544 37.263C174.031 37.263 173.651 37.0687 173.394 36.6904C173.148 36.3018 173.025 35.8416 173.025 35.2894V27.1294C171.823 27.1703 170.036 27.1907 167.654 27.1907V28.111C168.188 28.1826 168.568 28.2951 168.783 28.4382C168.999 28.5814 169.143 28.7757 169.184 29.0211C169.235 29.2665 169.256 29.6756 169.256 30.2584V35.4735C169.256 36.5983 169.512 37.4777 170.036 38.0913C170.56 38.7048 171.402 39.0627 172.573 39.1752H172.983C173.836 39.1752 174.647 38.9707 175.397 38.5617C176.157 38.1526 176.814 37.5902 177.379 36.8847L177.594 39.0525C177.748 39.0525 178.334 38.9502 179.361 38.7457C180.357 38.5208 181.466 38.3265 182.708 38.1629V37.2426H182.729Z" fill="white"/>
<path d="M189.835 38.9189V37.9474C189.414 37.9168 189.096 37.835 188.88 37.6918C188.665 37.5486 188.531 37.3544 188.47 37.1192C188.408 36.8738 188.377 36.5465 188.377 36.1171V32.2415C188.377 31.3928 188.582 30.6054 189.004 29.8998C189.425 29.184 190.02 28.8159 190.811 28.7955H190.965C191.982 28.7955 192.485 29.4397 192.485 30.7179V36.3113C192.464 36.7613 192.413 37.0885 192.341 37.293C192.269 37.4975 192.125 37.6509 191.92 37.7532C191.715 37.8554 191.396 37.9168 190.965 37.9577V38.9291C192.31 38.8882 193.317 38.8678 193.964 38.8678C194.806 38.8678 196.028 38.8882 197.64 38.9291V37.9577C197.003 37.9065 196.603 37.7532 196.449 37.5077C196.295 37.2623 196.213 36.8022 196.213 36.1273V32.2517C196.213 31.3928 196.418 30.6156 196.818 29.9101C197.229 29.2045 197.835 28.8364 198.646 28.7955H198.739C199.797 28.7955 200.32 29.4806 200.32 30.8406V36.1886C200.3 36.8635 200.207 37.3135 200.012 37.5486C199.817 37.7838 199.406 37.927 198.77 37.9883V38.9393C200.279 38.8984 201.419 38.878 202.179 38.878C203.001 38.878 204.151 38.8984 205.629 38.9393V37.9679C204.941 37.927 204.5 37.8043 204.294 37.6202C204.089 37.4362 203.986 37.0374 203.986 36.434C203.986 36.4136 203.986 36.3727 204.007 36.3113C204.007 36.25 204.017 36.2091 204.017 36.1886V31.0247C204.017 29.9817 203.873 29.1431 203.586 28.5092C203.298 27.8752 202.703 27.415 201.799 27.1185C201.193 26.9753 200.7 26.9037 200.32 26.9037C198.687 26.9037 197.281 27.6604 196.12 29.1636C195.483 27.6809 194.354 26.9344 192.711 26.9344H192.546C190.821 26.9651 189.404 27.7422 188.285 29.2556L188.1 26.873C187.936 26.873 187.771 26.8935 187.607 26.9242C187.443 26.9549 187.237 27.006 187.001 27.0776C186.765 27.1491 186.58 27.19 186.457 27.2207C185.163 27.507 184.033 27.7013 183.068 27.8036V28.7239C183.694 28.7341 184.105 28.8671 184.321 29.1227C184.536 29.3681 184.649 29.7874 184.649 30.3702V36.4443C184.649 37.0067 184.536 37.385 184.31 37.5691C184.085 37.7532 183.664 37.8963 183.037 37.9679V38.9393C184.557 38.8984 185.687 38.878 186.416 38.878C187.145 38.878 188.305 38.8984 189.835 38.9393V38.9189Z" fill="white"/>
<path d="M112.6 48.3987C111.779 47.6011 110.783 46.9671 109.602 46.5069C108.421 46.0468 107.116 45.7809 105.658 45.7196C104.775 45.6787 104.087 45.6582 103.604 45.6582C103.122 45.6582 102.434 45.6684 101.509 45.6889C100.585 45.7093 99.9075 45.7196 99.4556 45.7196C99.4043 45.7196 99.2913 45.7196 99.1475 45.7298C98.9935 45.7298 98.8908 45.74 98.8189 45.74C98.5416 45.74 98.1103 45.7298 97.525 45.6991C96.9396 45.6684 96.4981 45.6582 96.2003 45.6582V46.7217C97.2066 46.7319 97.8844 46.9057 98.2233 47.2125C98.5622 47.5295 98.7368 48.1533 98.7368 49.0736V60.1275C98.7368 60.7308 98.6649 61.191 98.5108 61.508C98.3671 61.825 98.1103 62.05 97.7509 62.1727C97.3915 62.3056 96.8883 62.3669 96.2311 62.3772V63.4713C97.6893 63.4304 99.8664 63.41 102.773 63.41C103.06 63.41 103.491 63.41 104.087 63.4202C104.683 63.4202 105.124 63.4304 105.422 63.4304C106.962 63.4304 108.205 63.3179 109.16 63.093C110.7 62.7044 111.994 61.917 113.062 60.7411C114.13 59.5651 114.767 58.2153 115.003 56.6815C115.085 56.1497 115.137 55.5362 115.137 54.8511C115.137 53.532 114.921 52.3151 114.48 51.221C114.038 50.1166 113.412 49.1656 112.59 48.368L112.6 48.3987ZM110.249 56.1395C110.197 57.7961 109.807 59.2174 109.098 60.4036C108.39 61.5898 107.301 62.1829 105.812 62.1829C105.74 62.1829 105.627 62.1829 105.463 62.1727C105.299 62.1624 105.176 62.1624 105.083 62.1624C104.323 62.0602 103.81 61.7841 103.533 61.3342C103.255 60.8945 103.122 60.2707 103.122 59.4731V47.5602C103.122 47.0898 103.502 46.8546 104.262 46.8546C104.765 46.8546 105.36 46.9364 106.059 47.1C107.168 47.3148 108.03 47.7954 108.657 48.5418C109.283 49.2883 109.704 50.1677 109.93 51.1698C110.156 52.172 110.259 53.2763 110.259 54.483C110.259 55.2294 110.259 55.7816 110.228 56.1293L110.249 56.1395Z" fill="white"/>
<path d="M119.891 57.1217H127.943C127.901 55.6799 127.686 54.6164 127.275 53.9211C126.885 53.2462 126.351 52.694 125.652 52.285C124.954 51.8759 124.204 51.6203 123.393 51.5487C123.198 51.5283 122.911 51.5078 122.51 51.5078C121.329 51.5078 120.241 51.743 119.224 52.1929C118.207 52.6531 117.386 53.3178 116.759 54.1869C116.133 55.0561 115.773 56.0889 115.691 57.2751V57.725C115.691 58.9521 115.999 60.0258 116.626 60.9563C117.252 61.8766 118.063 62.5822 119.08 63.073C120.097 63.5639 121.165 63.7991 122.294 63.7991C123.342 63.7991 124.348 63.5741 125.314 63.1344C126.279 62.6947 127.08 62.0402 127.717 61.1711L126.803 60.3735C125.673 61.5801 124.543 62.1732 123.424 62.1732C123.362 62.1732 123.28 62.1732 123.167 62.163C123.054 62.1527 122.972 62.1527 122.911 62.1527C120.867 61.8562 119.85 60.2814 119.85 57.4182C119.85 57.3876 119.85 57.3364 119.861 57.2546C119.861 57.1728 119.871 57.1319 119.871 57.1115L119.891 57.1217ZM120.497 53.5836C120.898 52.8985 121.504 52.5611 122.294 52.5611C123.681 52.5815 124.379 53.6859 124.379 55.8639H119.891C119.891 55.0254 120.097 54.2585 120.497 53.5836Z" fill="white"/>
<path d="M141.878 61.0575V55.7095C141.878 53.2758 140.892 51.8954 138.91 51.5579C138.53 51.517 138.243 51.4863 138.058 51.4863C136.332 51.4863 134.823 52.2635 133.539 53.8076L133.385 51.5579C132.995 51.5579 132.327 51.6908 131.393 51.9465C130.161 52.2021 129.123 52.3453 128.261 52.3964V53.3678C128.949 53.4292 129.401 53.5621 129.627 53.7769C129.853 53.9916 129.966 54.4415 129.966 55.1369V61.0371C129.955 61.6609 129.832 62.0597 129.616 62.2233C129.401 62.3971 128.949 62.4994 128.261 62.53V63.481C129.822 63.4401 131.013 63.4197 131.835 63.4197C132.656 63.4197 133.817 63.4401 135.377 63.481V62.53C134.792 62.53 134.371 62.4073 134.114 62.1721C133.858 61.937 133.734 61.5484 133.734 60.9962C133.734 60.9348 133.734 60.9042 133.765 60.9042V56.7525C133.765 55.9754 133.94 55.2698 134.289 54.6358C134.638 54.0018 135.182 53.603 135.901 53.4599C136.158 53.419 136.343 53.3985 136.445 53.3985C137 53.3985 137.411 53.6133 137.668 54.0427C137.924 54.4722 138.058 55.0244 138.058 55.6789V61.0269C138.058 61.62 137.955 62.0188 137.739 62.2233C137.524 62.4176 137.113 62.5198 136.507 62.5198V63.4708C138.027 63.4299 139.187 63.4095 139.988 63.4095C140.789 63.4095 141.981 63.4299 143.49 63.4708V62.5198C142.823 62.4585 142.391 62.346 142.186 62.1824C141.981 62.0188 141.878 61.6404 141.878 61.0269V61.0575Z" fill="white"/>
<path d="M150.566 61.7328C150.258 61.9374 149.98 62.0396 149.744 62.0396C149.508 62.0396 149.323 61.9271 149.159 61.7022C149.005 61.4772 148.923 61.1398 148.923 60.7V53.0103H151.757V51.7833H148.923V48.0918H147.875C147.423 49.1757 146.889 50.0347 146.273 50.6687C145.657 51.3027 144.825 51.7321 143.778 51.9673V53.0001H145.164V60.1785C145.164 60.1785 145.164 60.2194 145.144 60.2706C145.144 60.3217 145.133 60.3524 145.133 60.3626C145.133 61.4874 145.369 62.3362 145.832 62.919C146.294 63.5019 147.115 63.7882 148.296 63.7882C150.001 63.7882 151.326 63.1031 152.281 61.7431L151.367 60.9761C151.151 61.2829 150.884 61.5386 150.576 61.7431L150.566 61.7328Z" fill="white"/>
<path d="M163.957 61.9374C163.659 61.9374 163.515 61.6818 163.515 61.1807V54.9533C163.515 53.7467 163.022 52.8673 162.047 52.3151C161.061 51.7527 159.859 51.4766 158.432 51.4766C157.415 51.4766 156.46 51.5993 155.577 51.8447C154.694 52.0901 154.068 52.4071 153.688 52.7854C153.369 53.1536 153.215 53.5524 153.215 53.9818C153.215 54.4113 153.359 54.759 153.646 55.0862C153.934 55.4134 154.273 55.5771 154.663 55.5771C154.92 55.5771 155.218 55.485 155.546 55.301C155.793 55.1578 155.967 55.0044 156.06 54.8306C156.162 54.6567 156.286 54.3807 156.46 53.9921C156.625 53.6035 156.789 53.3274 156.933 53.174C157.282 52.765 157.754 52.5605 158.35 52.5605C158.524 52.5605 158.719 52.5809 158.925 52.6218C159.562 52.8366 159.87 53.4399 159.87 54.4216V54.9022C159.87 55.4134 159.654 55.7713 159.202 55.9656C159.141 56.0168 158.884 56.1292 158.432 56.2826C157.97 56.436 157.58 56.5689 157.251 56.6814C155.926 57.162 154.94 57.6017 154.283 58.021C153.77 58.3482 153.369 58.7675 153.082 59.2787C152.784 59.79 152.64 60.3218 152.64 60.8637C152.64 61.2523 152.753 61.7227 152.989 62.2646C153.492 63.2872 154.458 63.7883 155.895 63.7883H156.121C156.768 63.778 157.374 63.6247 157.939 63.3383C158.514 63.052 159.12 62.6532 159.787 62.1419C160.013 62.7452 160.311 63.1645 160.681 63.4201C161.051 63.6656 161.574 63.7883 162.252 63.7883C162.858 63.7883 163.464 63.6553 164.059 63.3792C164.655 63.1031 165.127 62.735 165.477 62.2646L164.902 61.5591C164.45 61.8249 164.142 61.9579 163.957 61.9579V61.9374ZM159.767 59.8718C159.767 60.332 159.562 60.7512 159.161 61.1194C158.75 61.4875 158.329 61.6716 157.877 61.6716C157.456 61.6716 157.148 61.5079 156.933 61.1909C156.676 60.9149 156.553 60.5365 156.553 60.0559C156.553 59.7798 156.625 59.4117 156.768 58.9311C156.994 58.43 157.374 58.0312 157.898 57.7347C158.422 57.4381 159.048 57.1825 159.777 56.978V59.8821L159.767 59.8718Z" fill="white"/>
<path d="M171.638 61.1199V44.6055C169.708 45.2395 167.869 45.5871 166.134 45.6383V46.5893C166.668 46.6302 167.079 46.712 167.387 46.8347C167.695 46.9574 167.839 47.1926 167.839 47.5607V61.1199C167.839 61.7028 167.705 62.0914 167.428 62.2652C167.151 62.439 166.678 62.5413 166 62.5515V63.5025C166.986 63.4207 168.126 63.3798 169.42 63.3798C170.344 63.3798 171.7 63.4207 173.466 63.5025V62.5515C172.86 62.5208 172.398 62.3981 172.09 62.2038C171.782 62.0096 171.628 61.6414 171.628 61.1199H171.638Z" fill="white"/>
<path d="M193.994 54.0222C193.491 53.6439 192.947 53.2962 192.351 52.9894C191.756 52.6827 191.14 52.3964 190.513 52.1305C189.876 51.8646 189.219 51.5885 188.511 51.292C187.186 50.6887 186.518 49.9013 186.518 48.9401C186.518 48.3674 186.703 47.8664 187.073 47.4369C187.443 47.0074 187.925 46.7313 188.511 46.6189C188.685 46.5984 188.932 46.5882 189.271 46.5882C190.195 46.5882 190.985 46.7825 191.643 47.171C192.68 47.8153 193.409 48.9299 193.861 50.4944H195.093C195.032 48.8174 195.001 47.1608 195.001 45.5247H193.707L193.358 46.6495C192.064 45.7395 190.647 45.2793 189.096 45.2793C186.939 45.2793 185.327 45.9644 184.259 47.3244C183.643 48.1629 183.345 49.1548 183.345 50.2899C183.345 51.609 183.756 52.7236 184.577 53.6439C185.132 54.2677 185.707 54.738 186.292 55.055C186.888 55.372 187.73 55.7606 188.839 56.2208C189.938 56.6809 190.77 57.1206 191.335 57.5296C192.115 58.133 192.505 58.8692 192.505 59.7588C192.505 60.444 192.259 61.0575 191.756 61.5995C191.252 62.1414 190.585 62.4584 189.763 62.5402C189.609 62.5607 189.383 62.5709 189.065 62.5709C187.802 62.5709 186.785 62.121 186.015 61.2313C185.245 60.3417 184.69 59.1964 184.321 57.8057H183.058C183.119 58.8283 183.16 59.7793 183.16 60.6485C183.16 61.5177 183.13 62.4686 183.058 63.4605H184.352L184.67 62.1823C185.44 62.7856 186.19 63.2151 186.909 63.4708C187.627 63.7264 188.49 63.8593 189.476 63.8593H189.599C190.831 63.8593 191.992 63.6241 193.06 63.1435C194.138 62.6629 194.949 61.9369 195.504 60.9655C195.946 60.1065 196.171 59.2271 196.171 58.3068C196.171 57.1718 195.874 56.2003 195.288 55.3823C194.939 54.8812 194.518 54.4415 194.015 54.0529L193.994 54.0222Z" fill="white"/>
<path d="M203.237 61.7328C202.929 61.9374 202.651 62.0396 202.415 62.0396C202.179 62.0396 201.994 61.9271 201.83 61.7022C201.676 61.4772 201.594 61.1398 201.594 60.7V53.0103H204.428V51.7833H201.594V48.0918H200.546C200.094 49.1757 199.56 50.0347 198.944 50.6687C198.328 51.3027 197.496 51.7321 196.449 51.9673V53.0001H197.835V60.1785C197.835 60.1785 197.835 60.2194 197.815 60.2706C197.815 60.3217 197.804 60.3524 197.804 60.3626C197.804 61.4874 198.04 62.3362 198.503 62.919C198.965 63.5019 199.786 63.7882 200.967 63.7882C202.672 63.7882 203.997 63.1031 204.952 61.7431L204.038 60.9761C203.822 61.2829 203.555 61.5386 203.247 61.7431L203.237 61.7328Z" fill="white"/>
<path d="M220.273 61.8548C219.75 61.8548 219.37 61.7832 219.113 61.6503C218.856 61.5174 218.733 61.2004 218.733 60.7198V51.7109C217.983 51.7314 217.193 51.7518 216.361 51.7518C215.529 51.7518 214.512 51.7518 213.301 51.7723V52.6926C213.824 52.7437 214.194 52.8358 214.42 52.9482C214.646 53.0607 214.8 53.2448 214.872 53.4902C214.944 53.7356 214.974 54.1344 214.974 54.6764V57.6112C214.974 58.7258 214.82 59.6665 214.512 60.4334C214.204 61.2004 213.578 61.6503 212.633 61.7934C212.592 61.7934 212.52 61.7934 212.417 61.8241C212.315 61.8446 212.253 61.8548 212.222 61.8548C211.709 61.8548 211.329 61.6605 211.072 61.2822C210.826 60.8936 210.702 60.4334 210.702 59.8813V51.7212C209.501 51.7621 207.714 51.7825 205.332 51.7825V52.7028C205.866 52.7744 206.246 52.8869 206.461 53.03C206.677 53.1732 206.821 53.3675 206.862 53.6129C206.913 53.8583 206.934 54.2674 206.934 54.8502V60.0653C206.934 61.1901 207.19 62.0695 207.714 62.6831C208.238 63.2966 209.08 63.6545 210.251 63.767H210.661C211.514 63.767 212.325 63.5625 213.075 63.1535C213.835 62.7444 214.492 62.182 215.057 61.4765L215.272 63.6443C215.426 63.6443 216.012 63.542 217.039 63.3375C218.035 63.1126 219.144 62.9183 220.386 62.7547V61.8344C220.386 61.8344 220.366 61.8344 220.325 61.8446C220.284 61.8548 220.263 61.8548 220.253 61.8548H220.273Z" fill="white"/>
<path d="M234.332 60.7211V44.6055C232.956 44.9736 230.994 45.219 228.458 45.3315V46.2825C229.197 46.3234 229.731 46.4154 230.07 46.5586C230.409 46.7017 230.573 47.0494 230.573 47.6016V53.0314C229.475 51.9782 228.201 51.4464 226.753 51.4464C225.747 51.4464 224.792 51.7123 223.878 52.2338C222.964 52.7553 222.225 53.4916 221.67 54.4323C221.115 55.3731 220.838 56.4366 220.838 57.6228C220.838 57.6228 220.838 57.6534 220.848 57.6841C220.848 57.7148 220.859 57.7352 220.859 57.7455C220.89 58.676 221.064 59.5656 221.403 60.4246C221.742 61.2835 222.245 62.0096 222.913 62.6026C223.58 63.1957 224.391 63.5639 225.346 63.6968C225.767 63.7581 226.178 63.7888 226.579 63.7888C228.201 63.7888 229.547 63.073 230.625 61.6517L230.912 63.7582C232.648 63.298 234.394 62.9605 236.16 62.756V61.8357C235.585 61.7948 235.133 61.7028 234.815 61.5801C234.496 61.4471 234.332 61.1711 234.332 60.7416V60.7211ZM230.512 58.7373C230.491 59.6577 230.265 60.3939 229.824 60.9563C229.382 61.5187 228.704 61.8255 227.79 61.8562C227.79 61.8562 227.76 61.8562 227.708 61.8664C227.657 61.8766 227.636 61.8766 227.626 61.8766C226.753 61.8766 226.106 61.4983 225.696 60.7518C225.275 60.0053 225.059 59.1464 225.038 58.1749C225.038 58.1238 225.038 58.042 225.018 57.9091C225.018 57.7864 225.008 57.7046 225.008 57.6534C225.008 56.4468 225.223 55.4038 225.644 54.5039C226.076 53.6143 226.815 53.1541 227.883 53.1235H227.914C228.704 53.1235 229.331 53.3893 229.803 53.9211C230.276 54.4528 230.512 55.097 230.512 55.8742V58.7169V58.7373Z" fill="white"/>
<path d="M239.795 48.9611C239.795 48.9611 239.898 48.9611 239.97 48.9816C240.042 49.002 240.093 49.002 240.144 49.002C240.576 49.002 240.987 48.8793 241.377 48.6237C241.767 48.368 242.055 48.0613 242.229 47.6829C242.311 47.3455 242.363 47.0796 242.363 46.8955C242.363 46.0979 242.055 45.4946 241.449 45.0958C241.048 44.8913 240.627 44.7891 240.186 44.7891C239.744 44.7891 239.333 44.9015 238.974 45.1265C238.614 45.3515 238.347 45.6685 238.173 46.0775C238.06 46.507 238.008 46.7728 238.008 46.8751C238.008 47.3659 238.183 47.8159 238.532 48.2249C238.881 48.6339 239.302 48.8896 239.816 48.9714L239.795 48.9611Z" fill="white"/>
<path d="M242.332 61.1187V51.4043C242.167 51.4043 242.013 51.4247 241.849 51.4554C241.685 51.4861 241.479 51.5372 241.233 51.6088C240.987 51.6804 240.771 51.7315 240.596 51.7724C239.354 52.0076 238.06 52.2019 236.704 52.3553V53.2756C237.382 53.3063 237.844 53.4188 238.08 53.6233C238.316 53.8278 238.44 54.2368 238.44 54.8606V61.1187C238.44 61.6913 238.316 62.0594 238.08 62.2128C237.834 62.3662 237.382 62.4685 236.704 62.5196V63.491C238.347 63.4501 239.58 63.4297 240.411 63.4297C240.812 63.4297 241.418 63.4297 242.239 63.4399C243.061 63.4501 243.677 63.4501 244.078 63.4501V62.4991C243.4 62.448 242.948 62.3458 242.701 62.1924C242.455 62.039 242.342 61.6709 242.342 61.0982L242.332 61.1187Z" fill="white"/>
<path d="M256.945 54.4004C256.308 53.4188 255.466 52.6518 254.408 52.0792C253.351 51.5168 252.221 51.2305 251.02 51.2305C249.818 51.2305 248.709 51.5168 247.682 52.0792C246.645 52.6416 245.823 53.4085 245.197 54.38C244.57 55.3514 244.262 56.4046 244.262 57.5499C244.262 58.7566 244.581 59.8609 245.228 60.8733C245.875 61.8856 246.737 62.6832 247.816 63.2661C248.894 63.8489 250.034 64.1455 251.246 64.1455C252.457 64.1455 253.546 63.8489 254.562 63.2558C255.589 62.6628 256.401 61.8549 257.007 60.8528C257.612 59.8405 257.91 58.7668 257.91 57.6215C257.91 56.4762 257.592 55.3923 256.955 54.4106L256.945 54.4004ZM253.269 61.1903C252.95 62.1822 252.201 62.6832 251.04 62.7037C249.243 62.7037 248.35 61.2005 248.35 58.1839C248.35 58.143 248.35 58.0817 248.37 57.9896C248.38 57.9078 248.391 57.826 248.391 57.7544C248.391 56.8648 248.442 56.057 248.555 55.331C248.658 54.6152 248.914 53.9812 249.325 53.429C249.736 52.8768 250.332 52.6007 251.133 52.6007C252.231 52.6007 252.94 53.0813 253.258 54.0425C253.587 55.0037 253.751 56.149 253.751 57.4783C253.751 58.9611 253.587 60.1984 253.269 61.1903Z" fill="white"/>
<path d="M177.05 74.2303C177.605 73.9951 177.974 73.5145 177.974 72.7884C177.974 71.7557 177.194 71.1523 175.838 71.1523H173.22V77.5025H176.013C177.533 77.5025 178.293 76.8889 178.293 75.805C178.293 74.9461 177.82 74.4041 177.04 74.2303H177.05ZM173.867 71.7148H175.808C176.783 71.7148 177.348 72.1033 177.348 72.8703C177.348 73.6372 176.783 74.0258 175.808 74.0258H173.867V71.725V71.7148ZM176.013 76.9503H173.867V74.5677H176.013C177.081 74.5677 177.666 74.9256 177.666 75.7539C177.666 76.5822 177.081 76.9503 176.013 76.9503Z" fill="white"/>
<path d="M181.148 76.7857L179.433 72.7363H178.796L180.839 77.4913L180.644 77.9514C180.388 78.5445 180.11 78.749 179.7 78.749C179.371 78.749 179.094 78.6263 178.868 78.3911L178.58 78.8717C178.857 79.158 179.268 79.3114 179.689 79.3114C180.336 79.3114 180.829 79.0149 181.209 78.0741L183.489 72.7363H182.883L181.168 76.7857H181.148Z" fill="white"/>
<path d="M189.219 71.1621H186.744V77.5122H189.219C191.16 77.5122 192.475 76.2034 192.475 74.3423C192.475 72.4812 191.16 71.1723 189.219 71.1723V71.1621ZM189.178 76.9192H187.381V71.7347H189.178C190.79 71.7347 191.838 72.8084 191.838 74.3321C191.838 75.8557 190.801 76.9294 189.178 76.9294V76.9192Z" fill="white"/>
<path d="M194.374 73.6672V72.7367H193.779V77.5018H194.395V75.0681C194.395 73.9433 194.98 73.3093 195.935 73.3093C195.976 73.3093 196.028 73.3093 196.079 73.3093V72.6855C195.237 72.6855 194.652 73.023 194.364 73.657L194.374 73.6672Z" fill="white"/>
<path d="M197.229 76.5605C196.972 76.5605 196.767 76.7651 196.767 77.0514C196.767 77.3377 196.972 77.5524 197.229 77.5524C197.486 77.5524 197.702 77.3377 197.702 77.0514C197.702 76.7651 197.486 76.5605 197.229 76.5605Z" fill="white"/>
<path d="M201.614 72.8297C201.614 72.1957 202.107 71.6742 203.216 71.6742C203.75 71.6742 204.366 71.848 204.88 72.1957L205.095 71.664C204.613 71.3061 203.894 71.1016 203.216 71.1016C201.676 71.1016 200.977 71.9094 200.977 72.8399C200.977 75.1918 204.715 74.1181 204.715 75.8565C204.715 76.4803 204.223 76.9813 203.083 76.9813C202.282 76.9813 201.511 76.6541 201.08 76.2144L200.823 76.7359C201.275 77.2267 202.169 77.5642 203.083 77.5642C204.633 77.5642 205.352 76.7666 205.352 75.8361C205.352 73.5251 201.614 74.5783 201.614 72.8399V72.8297Z" fill="white"/>
<path d="M208.217 72.6953C207.498 72.6953 206.821 72.9305 206.359 73.3395L206.636 73.8201C207.005 73.4725 207.57 73.2577 208.156 73.2577C209.008 73.2577 209.45 73.6974 209.45 74.5155V74.8018H208.002C206.687 74.8018 206.235 75.4153 206.235 76.1516C206.235 76.9799 206.872 77.5423 207.899 77.5423C208.659 77.5423 209.193 77.2457 209.47 76.7549V77.5014H210.055V74.5462C210.055 73.3089 209.388 72.6953 208.207 72.6953H208.217ZM209.45 76.0698C209.203 76.6935 208.69 77.0412 208.002 77.0412C207.272 77.0412 206.851 76.6935 206.851 76.1414C206.851 75.6505 207.139 75.2926 208.022 75.2926H209.45V76.0698Z" fill="white"/>
<path d="M217.819 76.7857L216.104 72.7363H214.882L213.167 76.7857L211.452 72.7363H210.815L212.859 77.4913L212.664 77.9514C212.407 78.5445 212.13 78.749 211.719 78.749C211.39 78.749 211.113 78.6263 210.887 78.3911L210.6 78.8717C210.877 79.158 211.288 79.3114 211.709 79.3114C212.356 79.3114 212.849 79.0149 213.229 78.0741L215.498 72.767L217.521 77.4913L217.326 77.9514C217.069 78.5445 216.792 78.749 216.381 78.749C216.053 78.749 215.775 78.6263 215.55 78.3911L215.262 78.8717C215.539 79.158 215.95 79.3114 216.371 79.3114C217.018 79.3114 217.511 79.0149 217.891 78.0741L220.171 72.7363H219.565L217.85 76.7857H217.819Z" fill="white"/>
<path d="M221.331 70.7734C221.074 70.7734 220.879 70.978 220.879 71.2234C220.879 71.4688 221.085 71.6835 221.331 71.6835C221.578 71.6835 221.783 71.479 221.783 71.2131C221.783 70.9677 221.588 70.7734 221.331 70.7734Z" fill="white"/>
<path d="M221.629 72.7363H221.013V77.5015H221.629V72.7363Z" fill="white"/>
<path d="M226.897 73.6366C226.517 73.0231 225.891 72.6959 225.162 72.6959C223.857 72.6959 222.892 73.6775 222.892 75.1193C222.892 76.5612 223.868 77.5531 225.162 77.5531C225.921 77.5531 226.548 77.2054 226.928 76.5612V77.5019H227.523V70.7734H226.907V73.6366H226.897ZM225.213 76.9804C224.237 76.9804 223.508 76.2339 223.508 75.1193C223.508 74.0047 224.237 73.2583 225.213 73.2583C226.188 73.2583 226.907 74.0047 226.907 75.1193C226.907 76.2339 226.178 76.9804 225.213 76.9804Z" fill="white"/>
<path d="M236.581 71.1621H235.842L232.278 74.9967V71.1621H231.631V77.502H232.278V75.8352L233.521 74.5161L235.996 77.502H236.766L233.952 74.0355L236.581 71.1621Z" fill="white"/>
<path d="M239.148 72.6953C238.429 72.6953 237.752 72.9305 237.29 73.3395L237.567 73.8201C237.936 73.4725 238.501 73.2577 239.087 73.2577C239.939 73.2577 240.381 73.6974 240.381 74.5155V74.8018H238.933C237.618 74.8018 237.166 75.4153 237.166 76.1516C237.166 76.9799 237.803 77.5423 238.83 77.5423C239.59 77.5423 240.124 77.2457 240.401 76.7549V77.5014H240.986V74.5462C240.986 73.3089 240.319 72.6953 239.138 72.6953H239.148ZM240.381 76.0698C240.134 76.6935 239.621 77.0412 238.933 77.0412C238.203 77.0412 237.782 76.6935 237.782 76.1414C237.782 75.6505 238.07 75.2926 238.953 75.2926H240.381V76.0698Z" fill="white"/>
<path d="M242.814 74.0349C242.814 73.5849 243.184 73.2475 244.006 73.2475C244.478 73.2475 244.95 73.3702 245.351 73.6565L245.618 73.135C245.238 72.8589 244.591 72.6953 244.006 72.6953C242.845 72.6953 242.198 73.2782 242.198 74.0553C242.198 75.9369 245.156 74.9654 245.156 76.2027C245.156 76.6731 244.796 76.9799 243.934 76.9799C243.287 76.9799 242.671 76.7447 242.311 76.4481L242.034 76.9594C242.404 77.2969 243.133 77.5525 243.893 77.5525C245.084 77.5525 245.772 77.0208 245.772 76.1925C245.772 74.3621 242.814 75.3335 242.814 74.0451V74.0349Z" fill="white"/>
<path d="M247.22 70.7734C246.963 70.7734 246.768 70.978 246.768 71.2234C246.768 71.4688 246.973 71.6835 247.22 71.6835C247.466 71.6835 247.672 71.479 247.672 71.2131C247.672 70.9677 247.477 70.7734 247.22 70.7734Z" fill="white"/>
<path d="M247.528 72.7363H246.912V77.5015H247.528V72.7363Z" fill="white"/>
<path d="M254.942 72.6953C254.121 72.6953 253.464 73.0839 253.135 73.6974C252.858 73.0225 252.262 72.6953 251.512 72.6953C250.763 72.6953 250.157 73.0328 249.839 73.6054V72.7362H249.243V77.5014H249.859V74.9961C249.859 73.9122 250.455 73.2782 251.389 73.2782C252.221 73.2782 252.714 73.7997 252.714 74.8018V77.5014H253.33V74.9961C253.33 73.9122 253.926 73.2782 254.86 73.2782C255.682 73.2782 256.175 73.7997 256.175 74.8018V77.5014H256.791V74.7404C256.791 73.3702 256.062 72.7055 254.953 72.7055L254.942 72.6953Z" fill="white"/>
</svg>
